<?xml version="1.0" encoding="utf-8"?>
<!-- Generator: Adobe Illustrator 16.0.4, SVG Export Plug-In . SVG Version: 6.00 Build 0)  -->
<!DOCTYPE svg PUBLIC "-//W3C//DTD SVG 1.1//EN" "http://www.w3.org/Graphics/SVG/1.1/DTD/svg11.dtd">
<svg version="1.1" id="Layer_1" xmlns="http://www.w3.org/2000/svg" xmlns:xlink="http://www.w3.org/1999/xlink" x="0px" y="0px"
	 width="71.667px" height="110.157px" viewBox="0 0 71.667 110.157" enable-background="new 0 0 71.667 110.157"
	 xml:space="preserve">
<g>
	<path fill="none" stroke="#000000" stroke-width="3" stroke-miterlimit="10" d="M43.823,68.206c0,0-3.337,23.808-1.021,22.78"/>
	<path fill="none" stroke="#000000" stroke-width="3" stroke-miterlimit="10" d="M28.988,68.206c0,0-3.336,23.808-1.02,22.78"/>
	<path fill="#FFFFFF" stroke="#000000" stroke-width="3.2285" stroke-miterlimit="10" d="M64.758,47.554
		c0,13.767-4.369,26.001-11.136,33.738c-4.733,5.412-10.64-7.245-17.045-7.245c-6.438,0-12.371,12.626-17.117,7.165
		c-6.728-7.74-11.065-19.938-11.065-33.658c0-23.396,12.617-42.362,28.183-42.362C52.141,5.192,64.758,24.158,64.758,47.554z"/>
	<polyline fill="#FFFFFF" stroke="#000000" stroke-width="3.2285" stroke-miterlimit="10" points="28.988,8.916 14.747,4.417 
		20.063,15.549 	"/>
	<path fill="#FFFFFF" stroke="#936C2A" stroke-width="1.5" stroke-miterlimit="10" stroke-dasharray="1.5,1.5" d="M29.871,19.311
		c-1.197-0.983-1.762-1.547-2.858-2.002c-5.32-2.206-10.433,3.784-10.433,8.451c0,3.322,2.367,6.195,5.806,7.577
		c0.491,0.197,1.534,0.497,1.534,0.497l1.201,0.846l7.984,5.624l13.372-3.565c5.654,0,10.24-3.959,10.24-8.843
		c0-4.883-6.213-11.308-10.24-8.842c-1.396,0.855-2.828,1.627-4.107,2.943"/>
	<path fill="none" stroke="#000000" stroke-width="3" stroke-linecap="round" stroke-miterlimit="10" d="M47.752,90.636
		c0,0-38.078,0-26.656,0"/>
	<path fill="none" stroke="#000000" stroke-width="2" stroke-miterlimit="10" d="M23.043,49.167
		c0.063-9.378,19.096-3.335,18.04-9.75c-0.374-2.276-1.476-6.723-3.762-6.266c-9.253,1.85-10.216,5.956-9.253,7.962
		c1.156,2.412,5.843,11.089,8.508,8.054"/>
	<polyline fill="#FFFFFF" stroke="#000000" stroke-width="3.2285" stroke-miterlimit="10" points="55.991,19.311 62.917,10.417 
		47.752,12.047 	"/>
	<g>
		<path fill="#FFFFFF" stroke="#000000" stroke-width="2.0487" stroke-miterlimit="10" d="M67.453,106.113H6.699
			c0,0-3.219-5.358-3.185-7.616c0.032-2.172,3.185-7.19,3.185-7.19h60.753c0,0-1.93,5.13-1.96,7.19
			C65.463,100.649,67.453,106.113,67.453,106.113z"/>
		
			<line fill="none" stroke="#000000" stroke-width="2.2778" stroke-miterlimit="10" x1="5.248" y1="93.843" x2="66.576" y2="93.843"/>
		
			<line fill="none" stroke="#000000" stroke-width="2.2778" stroke-miterlimit="10" x1="5.248" y1="103.573" x2="66.576" y2="103.573"/>
	</g>
	<polyline fill="#FFFFFF" stroke="#000000" stroke-width="3.2285" stroke-miterlimit="10" points="31.32,26.757 35.226,35.822 
		41.917,28.168 	"/>
	
		<ellipse fill="none" stroke="#000000" stroke-width="3.2285" stroke-miterlimit="10" cx="28.988" cy="24.909" rx="3.374" ry="2.913"/>
	
		<ellipse fill="none" stroke="#000000" stroke-width="3.2285" stroke-miterlimit="10" cx="45.742" cy="26.757" rx="3.374" ry="2.913"/>
</g>
<g>
	<path fill-rule="evenodd" clip-rule="evenodd" d="M14.878,61.778c5.51-0.013,10.925-0.026,16.442-0.041
		c0.139,3.702-0.422,7.296-3.882,9.564c-2.798,1.832-5.901,1.815-8.701-0.01C15.26,69.021,14.735,65.422,14.878,61.778z"/>
	<path fill-rule="evenodd" clip-rule="evenodd" d="M24.012,48.313c4.907,0.336,7.628,4.581,7.278,11.205
		c-2.44-0.01-4.877-0.019-7.36-0.027c-0.119-0.804-0.188-1.671,1.002-2.438c1.451-0.937,1.301-4.677-0.024-5.886
		C23.752,50.111,23.752,50.111,24.012,48.313z"/>
	<path fill-rule="evenodd" clip-rule="evenodd" d="M22.26,48.295c0.08,1.099,0.283,2.056-0.957,2.89
		c-1.543,1.036-1.574,5.017-0.024,5.934c1.285,0.76,1.05,1.632,0.961,2.691c-2.42-0.051-4.777-0.099-7.182-0.148
		C13.66,54.369,17.143,48.684,22.26,48.295z"/>
	<path fill-rule="evenodd" clip-rule="evenodd" d="M21.705,56.346c-0.085-1.668-0.271-2.95,0-4.055
		c0.031-0.13,2.308-0.091,2.312-0.042c0.092,1.145-0.053,2.963-0.199,4.097C23.793,56.528,22.834,56.393,21.705,56.346z"/>
</g>
</svg>
