<?xml version="1.0" encoding="utf-8"?>
<!-- Generator: Adobe Illustrator 23.0.6, SVG Export Plug-In . SVG Version: 6.00 Build 0)  -->
<svg version="1.1" id="Layer_1" xmlns="http://www.w3.org/2000/svg" xmlns:xlink="http://www.w3.org/1999/xlink" x="0px" y="0px"
	 viewBox="0 0 125 125" style="enable-background:new 0 0 125 125;" xml:space="preserve">
<path d="M54.62509,116.45451H16.55268c-0.11226-0.19476-0.22715-0.39707-0.34342-0.60412h38.41969l0.02337-3.64949H14.30418
	c-1.19616-2.48234-2.17416-4.97195-2.15372-6.28485c0.01779-1.20804,0.92268-3.41932,2.04126-5.65733h40.53704l0.02337-3.64949
	H16.17531c0.12055-0.20541,0.23932-0.4051,0.35547-0.5978h38.22519l0.02102-3.2833H14.70604l-0.48201,0.76838
	c-0.54305,0.86234-5.30052,8.53999-5.35686,12.36945c-0.05946,3.97344,4.78722,12.15662,5.33966,13.07523l0.47888,0.79659h39.91838
	L54.62509,116.45451z"/>
<path d="M111.47218,105.91447c0.03443-2.46947,2.20348-8.75436,3.03602-10.96723l0.83414-2.21911H68.74498l-0.02103,3.2833h41.91411
	c-0.06582,0.19057-0.13431,0.3913-0.20415,0.5978H68.72012l-0.02336,3.64949h40.59214c-0.59228,2.07344-1.07936,4.19199-1.1,5.6104
	c-0.02155,1.57531,0.51942,4.00518,1.16661,6.33178H68.6203l-0.02337,3.64949h41.8681
	c0.06845,0.20921,0.13535,0.41161,0.19964,0.60412H68.59306l-0.02102,3.28326h46.74525l-0.80126-2.20345
	C113.65685,115.17746,111.43618,108.49511,111.47218,105.91447z"/>
<path d="M54.84052,82.80572H16.55268c-0.11226-0.19476-0.22715-0.39707-0.34342-0.60411h38.63513l0.02337-3.6495H14.30418
	c-1.19616-2.48233-2.17416-4.97195-2.15372-6.28485c0.01779-1.20804,0.92268-3.41931,2.04126-5.65733h40.75249l0.02335-3.64949
	H16.17531c0.12055-0.20542,0.23932-0.40509,0.35547-0.5978H54.9714l0.02102-3.2833H14.70604l-0.48201,0.76838
	c-0.54305,0.86235-5.30052,8.54-5.35686,12.36944C8.8077,76.1906,13.65438,84.37379,14.20682,85.2924l0.47888,0.79659H54.8195
	L54.84052,82.80572z"/>
<path d="M111.47218,72.26567c0.03443-2.46947,2.20348-8.75436,3.03602-10.96723l0.83414-2.21911H68.96041l-0.02103,3.2833h41.69868
	c-0.06582,0.19057-0.13431,0.3913-0.20415,0.5978H68.93555l-0.02336,3.64949h40.37671c-0.59228,2.07345-1.07936,4.19199-1.1,5.61041
	c-0.02155,1.57531,0.51942,4.00517,1.16661,6.33177H68.83573l-0.02337,3.6495h41.65266
	c0.06845,0.20921,0.13535,0.4116,0.19964,0.60411H68.80849l-0.02102,3.28326h46.52982l-0.80126-2.20345
	C113.65685,81.52867,111.43618,74.84631,111.47218,72.26567z"/>
<path d="M61.56942,122.69762c-0.00744,0-0.01488,0-0.02263,0c-1.75306-0.0124-3.16418-1.44337-3.15209-3.19642l0.6355-91.00479
	c0.0124-1.74546,1.43127-3.15225,3.1741-3.15225c0.00744,0,0.01488,0,0.02263,0c1.75306,0.0124,3.16418,1.44337,3.1521,3.19658
	l-0.63551,91.00478C64.73112,121.29084,63.31224,122.69762,61.56942,122.69762z"/>
<path d="M111.47217,38.93433c0.03442-2.46948,2.20349-8.75439,3.03601-10.96722l0.83417-2.21912H76.07306
	c0.0163,0.05493,0.03613,0.10406,0.05219,0.15942c0.33514,1.15656,0.87909,2.19525,1.51562,3.12384h32.99719
	c-0.0658,0.19061-0.13428,0.3913-0.20416,0.59784H78.07214c1.27252,1.65271,2.8075,2.88538,3.92041,3.64948h27.29633
	c-0.59229,2.07343-1.07935,4.19202-1.09998,5.61041c-0.02155,1.57532,0.51941,4.00519,1.16663,6.33179h-40.3064l-0.02338,3.64948
	h41.43927c0.06842,0.20923,0.13538,0.41162,0.19965,0.60413H69.02191l-0.02106,3.28326h46.31641l-0.80121-2.20349
	C113.65686,48.19733,111.43616,41.51495,111.47217,38.93433z"/>
<path d="M12.15045,38.93591c0.01782-1.20807,0.92267-3.41931,2.04126-5.65735h24.64917
	c0.36548-0.23834,0.76166-0.44092,1.19305-0.58923c1.36224-0.48041,3.64276-1.59979,5.45825-3.06024H16.17529
	c0.12054-0.20544,0.23932-0.40509,0.35547-0.59784h29.65186c1.00232-0.92957,1.77472-1.96649,2.00372-3.05225
	c0.0166-0.07861,0.04059-0.15289,0.05804-0.23102H14.70605L14.224,26.51636c-0.54303,0.8623-5.30048,8.53998-5.35681,12.36945
	c-0.05951,3.97345,4.78717,12.15662,5.3396,13.0752l0.47888,0.79663H55.0329l0.021-3.28326H16.55267
	c-0.11224-0.19476-0.22717-0.39709-0.34344-0.60413H55.0578l0.02332-3.64948H14.3042
	C13.10803,42.7384,12.13,40.24878,12.15045,38.93591z"/>
<path d="M101.77441,10.73242c-0.4588-3.51917-2.33649-5.34412-3.83069-6.25525c-3.95404-2.41058-10.38037-1.88171-20.22388,1.66626
	c-4.04956,1.45978-9.26282,3.66827-12.94318,5.27283c-0.10602-1.04596-0.85931-1.95795-1.93964-2.21497
	c-1.3479-0.31866-2.69891,0.49725-3.04547,1.83118c-3.7287-1.33331-7.85577-2.87524-12.37836-4.62524
	c-2.29401-0.88751-14.0694-5.12305-20.59558-1.30011c-2.10211,1.23102-3.39636,3.16571-3.74359,5.5943
	c-0.3996,2.79773,0.47156,5.25354,2.51941,7.10211c4.52521,4.08459,14.62726,4.76886,28.7912,2.05945
	c-1.56604,1.67065-2.81268,3.90729-3.40302,6.70569c-0.99664,4.72614-7.5733,7.97198-10.01892,8.82245
	c-1.32654,0.45587-2.03204,1.90082-1.57605,3.22717c0.45599,1.3266,1.90155,2.03113,3.22711,1.57599
	c0.11591-0.03979,2.86938-0.99677,5.82739-2.91913c4.14935-2.69684,6.74658-6.03662,7.51044-9.65839
	c0.96161-4.55963,4.24854-6.25891,6.0943-6.25891c1.05524,0,4.63977,0.4873,6.45703,6.75836
	c2.55963,8.83331,11.18329,13.06018,11.54907,13.23578c0.354,0.16992,0.72729,0.25037,1.09521,0.25037
	c0.94305,0,1.84796-0.52936,2.28632-1.43579c0.60944-1.25983,0.08118-2.77698-1.17682-3.3902
	c-0.0694-0.03394-6.95825-3.45758-8.87561-10.07379c-0.84918-2.9314-2.14478-5.29016-3.84711-7.05273
	c7.5022,2.2821,10.97748,2.73395,13.06128,2.78973c0.46283,0.01239,0.93713,0.01923,1.42163,0.01923
	c5.51031,0,12.22583-0.89404,15.68237-4.72565C101.40741,15.83966,102.12476,13.41888,101.77441,10.73242z M39.27936,16.40387
	c-6.6889-0.02448-9.31335-1.49579-10.28271-2.37061c-0.77655-0.70087-1.05249-1.5072-0.89435-2.61359
	c0.12708-0.88971,0.52234-1.48492,1.28217-1.93005c0.99323-0.5816,2.5163-0.86212,4.37067-0.86212
	c3.27673,0,7.58698,0.87665,11.82532,2.5166c3.35919,1.2998,6.41083,2.45087,9.18726,3.47076
	c-5.82465,1.17676-11.04352,1.78931-15.32556,1.78931C39.38788,16.40417,39.33331,16.40387,39.27936,16.40387z M95.9278,14.33087
	c-1.86682,2.06989-6.79645,3.20203-13.19647,3.03149c-2.47009-0.06628-6.62469-1.00128-12.42578-2.79309
	c3.021-1.28064,6.39069-2.65765,9.13672-3.64746c10.56201-3.80743,14.46899-2.95465,15.85718-2.10803
	c0.51428,0.31342,1.22296,0.92163,1.43872,2.5752C96.89685,12.6073,96.63959,13.54193,95.9278,14.33087z"/>
</svg>
